<?xml version="1.0" standalone="yes"?>
<!DOCTYPE svg PUBLIC "-//W3C//DTD SVG 20010904//EN"
 "http://www.w3.org/TR/2001/REC-SVG-20010904/DTD/svg10.dtd">
<svg version="1.0" xmlns="http://www.w3.org/2000/svg"
 width="960.000000pt" height="960.000000pt" viewBox="0 0 960.000000 960.000000"
 preserveAspectRatio="xMidYMid meet">

<g transform="translate(0.000000,960.000000) scale(0.100000,-0.100000)"
fill="#000000" stroke="none">
<path d="M4500 9471 c-85 -23 -116 -40 -166 -93 -45 -46 -89 -123 -86 -149 2
-9 -36 -43 -97 -88 -122 -88 -206 -179 -263 -284 -24 -43 -65 -108 -91 -143
-49 -65 -52 -84 -15 -84 11 0 34 -10 51 -22 24 -17 46 -22 92 -23 55 0 67 -4
108 -35 57 -44 62 -54 31 -74 -23 -16 -24 -15 -21 5 1 12 -3 24 -10 26 -18 6
-32 -29 -34 -87 -2 -31 -7 -54 -15 -57 -10 -4 -65 27 -84 47 -3 3 -18 16 -34
28 -36 28 -57 29 -26 2 18 -16 21 -23 12 -32 -9 -9 -12 -8 -12 5 0 11 -8 17
-24 17 -13 0 -31 3 -39 6 -17 6 -28 -16 -33 -66 -4 -43 -50 -130 -69 -130 -8
0 -21 -10 -29 -21 l-15 -21 -33 31 c-29 27 -34 29 -45 15 -10 -14 -13 -14 -30
4 -10 10 -23 27 -30 38 -11 18 -12 18 -12 -2 -1 -30 -11 -36 -35 -21 -12 7
-33 18 -48 24 -22 10 -26 10 -22 -2 4 -9 -4 -17 -22 -21 -20 -5 -30 -2 -41 12
-13 18 -15 17 -48 -17 -25 -27 -31 -39 -22 -48 6 -6 17 -11 24 -11 7 0 13 -3
13 -8 0 -17 91 -52 171 -66 61 -10 98 -12 128 -5 23 5 47 7 52 3 6 -3 13 3 15
13 9 33 37 43 80 30 22 -6 43 -17 47 -24 5 -9 32 -13 77 -13 39 0 70 -4 70 -8
0 -5 18 -15 40 -22 65 -21 92 -70 39 -70 -14 0 -19 -7 -19 -30 0 -34 -23 -50
-73 -50 -26 0 -36 -5 -40 -20 -6 -24 -27 -27 -27 -4 0 8 -4 13 -10 9 -5 -3 -7
-12 -3 -20 4 -12 -3 -15 -31 -15 -20 0 -36 5 -36 11 0 13 -28 5 -95 -26 -57
-26 -123 -27 -264 -1 -52 10 -106 13 -142 9 -51 -5 -62 -3 -73 13 -11 15 -17
16 -29 6 -9 -8 -18 -9 -21 -4 -3 6 1 12 9 16 8 3 15 10 15 16 0 6 -18 -1 -40
-15 -72 -46 -81 -30 -15 29 24 23 46 50 47 61 3 17 -2 20 -33 19 -42 -1 -99
-39 -99 -66 0 -25 -10 -22 -40 8 -48 51 -85 73 -138 80 -63 8 -73 -11 -11 -21
32 -5 40 -11 36 -24 -2 -9 2 -23 10 -30 12 -11 17 -10 32 3 15 14 20 14 29 3
9 -11 6 -17 -13 -27 -21 -11 -27 -11 -42 2 -10 9 -29 19 -43 23 l-25 7 25 -19
c14 -11 40 -28 59 -39 37 -21 68 -46 144 -116 28 -27 54 -48 58 -48 4 0 10 -7
13 -16 4 -10 2 -13 -7 -7 -37 22 -96 65 -122 89 -31 27 -184 129 -267 177 -53
31 -61 47 -24 47 16 0 26 7 30 23 9 36 7 38 -18 22 -17 -12 -39 -14 -82 -11
-72 6 -148 22 -173 36 -28 15 -51 12 -51 -5 0 -8 -4 -15 -9 -15 -5 0 -14 -12
-20 -27 -6 -16 -27 -50 -46 -77 -19 -26 -35 -58 -35 -70 0 -11 -11 -45 -25
-74 -14 -30 -25 -64 -25 -77 0 -13 -22 -59 -48 -102 -26 -43 -58 -97 -70 -120
-34 -67 -71 -122 -111 -167 -20 -22 -49 -60 -64 -83 -15 -24 -31 -43 -36 -43
-5 0 -18 -17 -29 -38 -11 -22 -43 -71 -72 -110 -28 -39 -49 -75 -46 -80 3 -5
-13 -30 -34 -56 -22 -27 -40 -51 -40 -55 0 -4 -18 -31 -40 -60 -22 -29 -43
-65 -46 -80 -4 -14 -35 -64 -70 -110 -35 -46 -64 -88 -64 -93 0 -5 -11 -24
-24 -41 -24 -32 -108 -197 -121 -238 -4 -12 -26 -47 -50 -78 -57 -76 -103
-180 -85 -191 11 -7 9 -18 -8 -58 -12 -28 -22 -59 -22 -69 0 -31 -43 -102 -64
-105 -45 -7 -61 -152 -26 -232 34 -74 154 -185 271 -247 50 -26 124 -72 144
-89 20 -17 163 -100 171 -100 3 0 40 -16 82 -36 311 -146 880 -363 953 -364 9
0 43 -14 75 -31 155 -81 424 -178 553 -200 84 -15 95 -20 116 -66 36 -76 113
-291 130 -363 10 -41 24 -85 32 -98 17 -27 26 -273 13 -337 -4 -22 -16 -74
-25 -115 -9 -41 -20 -154 -25 -250 -7 -125 -15 -196 -30 -250 -20 -69 -43
-279 -42 -375 3 -399 11 -654 21 -680 9 -22 9 -34 1 -51 -9 -16 -8 -31 3 -66
14 -39 14 -50 2 -86 -11 -31 -15 -148 -20 -534 -6 -557 -9 -658 -23 -685 -17
-30 -30 -189 -32 -361 0 -89 -3 -169 -6 -177 -6 -13 267 -15 2354 -15 1299 0
2363 4 2366 8 3 5 0 66 -6 136 -8 88 -8 133 -1 144 5 10 16 42 23 72 7 30 21
80 30 110 9 30 30 96 45 145 16 50 32 94 36 99 5 5 6 28 3 50 -4 29 0 58 15
96 12 30 21 62 21 71 0 10 21 95 46 190 61 227 71 289 84 488 6 91 15 184 20
206 5 22 10 59 10 83 0 28 5 45 15 48 13 5 16 28 15 139 0 11 -4 74 -9 140 -6
70 -6 136 -1 159 9 39 5 252 -6 311 -3 17 -13 101 -24 187 -13 118 -24 170
-43 211 -35 76 -38 95 -41 258 -1 79 -7 153 -13 164 -6 11 -20 68 -32 125 -11
58 -29 130 -41 160 -11 30 -23 84 -27 120 -5 51 -12 73 -36 103 -28 36 -34 53
-56 152 -5 22 -17 69 -25 105 -39 154 -38 153 -117 193 l-43 22 -3 76 c-1 42
-10 96 -19 120 -9 24 -18 61 -20 82 -2 21 -11 51 -19 67 -8 16 -15 40 -15 54
0 13 -16 54 -35 91 -19 37 -44 97 -55 133 -52 164 -64 199 -81 232 -9 19 -20
52 -23 73 -2 20 -14 49 -26 64 -13 17 -20 38 -18 58 6 69 -13 181 -40 230 -50
92 -137 123 -181 66 l-23 -30 -39 21 c-44 23 -47 30 -19 58 27 27 25 38 -7 46
-75 16 -136 35 -224 66 -107 39 -174 50 -296 49 -73 0 -84 2 -97 21 -12 17
-18 19 -30 9 -12 -10 -21 -9 -47 5 -41 21 -110 90 -126 125 -9 20 -20 27 -52
32 -43 5 -105 49 -114 79 -6 21 -59 37 -65 20 -7 -23 -43 -12 -70 21 -60 72
-116 127 -129 127 -11 0 -11 -4 -3 -20 18 -34 14 -113 -8 -157 -11 -21 -50
-77 -87 -123 -36 -45 -84 -115 -106 -154 -23 -39 -55 -94 -72 -123 l-31 -52
-48 42 c-135 116 -168 133 -208 107 -12 -8 -9 -10 13 -10 15 0 27 -4 27 -10 0
-5 -12 -13 -27 -16 -16 -4 -48 -15 -71 -26 -44 -19 -72 -18 -72 2 0 6 5 8 12
4 7 -4 8 -3 4 4 -4 7 6 15 26 21 l33 9 -32 1 c-18 1 -33 6 -33 11 0 17 -30 11
-61 -11 l-30 -21 -42 48 c-23 27 -58 65 -77 86 -19 20 -45 47 -56 60 -12 13
-35 30 -50 38 -38 19 -116 81 -110 88 3 2 17 -5 33 -16 15 -11 46 -28 68 -39
56 -28 139 -76 145 -83 3 -4 40 -30 83 -59 54 -36 84 -50 95 -45 15 6 15 8 -3
14 -52 17 -85 33 -85 39 0 10 -124 91 -138 91 -7 0 -12 4 -12 8 0 5 -12 14
-27 21 -47 21 -130 80 -137 96 -3 8 -12 15 -20 15 -8 0 -19 15 -26 33 l-12 32
-10 -25 c-6 -15 -12 -20 -15 -12 -3 7 0 19 7 27 15 18 1 110 -46 300 -5 18 -3
18 15 -4 12 -13 21 -37 22 -55 0 -26 2 -28 9 -11 7 16 9 12 10 -20 1 -40 1
-40 15 -15 l15 25 6 -23 c4 -15 9 -19 14 -12 5 8 16 4 36 -13 16 -14 46 -32
67 -40 20 -9 37 -20 37 -25 0 -5 9 -12 20 -15 13 -3 20 -14 20 -30 0 -19 8
-29 30 -39 17 -7 28 -18 26 -25 -6 -15 31 -63 49 -63 7 0 15 -3 17 -8 2 -4 28
-15 58 -25 45 -14 57 -15 65 -4 6 8 20 19 33 26 25 13 29 43 7 61 -8 7 -15 18
-15 25 0 7 -11 20 -25 29 -38 25 -34 69 11 111 19 19 39 46 43 62 4 15 12 28
18 28 6 0 25 17 41 37 36 45 81 89 118 113 21 13 24 19 13 26 -12 7 -11 9 1 9
9 0 27 17 40 39 14 21 30 37 36 34 12 -4 33 24 72 97 17 31 24 59 23 90 -1 25
3 99 9 165 9 97 15 123 31 137 26 22 24 38 -6 38 -27 0 -36 13 -40 58 -1 15
-4 34 -8 42 -3 8 -13 51 -22 95 -9 44 -25 113 -35 154 -17 71 -17 74 1 92 28
28 78 24 113 -7 40 -38 59 -88 61 -169 3 -85 2 -80 20 -65 10 9 15 31 15 74 0
45 8 83 31 141 61 159 68 262 39 561 -22 215 -153 467 -358 689 -41 44 -85 99
-99 123 -14 23 -31 42 -37 42 -7 0 -21 9 -31 20 -10 11 -37 26 -59 32 -23 7
-69 27 -103 46 -125 67 -166 75 -390 77 -136 1 -206 5 -216 13 -24 20 -146 62
-180 61 -17 0 -61 -8 -97 -18z m4 -127 c3 -9 6 -27 6 -42 0 -25 -1 -25 -15 -6
-16 21 -20 64 -6 64 5 0 12 -7 15 -16z m-36 -96 l50 -53 -46 -22 c-26 -13 -54
-23 -63 -23 -11 0 -19 -12 -23 -35 -6 -32 -22 -53 -32 -43 -2 3 7 36 20 75 13
38 27 88 31 111 4 23 8 42 10 42 2 0 26 -24 53 -52z m152 -68 c-30 -24 -54
-22 -57 5 -2 11 0 14 3 8 8 -19 35 -16 28 2 -5 11 -2 13 10 9 10 -4 16 -1 16
7 0 10 2 11 13 0 10 -10 7 -16 -13 -31z m90 13 c-8 -3 -23 -10 -32 -15 -11 -5
-18 -5 -18 1 0 10 23 18 50 19 13 0 13 0 0 -5z m-190 -44 c0 -14 -5 -19 -14
-16 -8 3 -16 2 -18 -2 -2 -5 -13 -12 -25 -15 -17 -6 -23 -3 -23 8 0 9 9 16 20
16 11 0 20 5 20 11 0 5 5 7 10 4 6 -3 10 -1 10 4 0 6 5 11 10 11 6 0 10 -9 10
-21z m40 1 c0 -5 -7 -10 -15 -10 -8 0 -15 5 -15 10 0 6 7 10 15 10 8 0 15 -4
15 -10z m70 0 c0 -5 -4 -10 -9 -10 -5 0 -18 -3 -28 -6 -16 -6 -16 -5 2 9 23
19 35 21 35 7z m36 -50 c26 0 5 -18 -29 -26 -47 -10 -130 -48 -146 -67 -25
-30 -31 -18 -8 18 16 26 29 34 51 35 20 0 27 4 23 15 -7 18 13 32 22 16 9 -13
41 -4 41 11 0 6 7 7 16 4 9 -3 22 -6 30 -6z m-237 -23 c-2 -1 -12 -9 -22 -16
-15 -12 -17 -12 -11 3 3 9 13 16 22 16 8 0 13 -1 11 -3z m466 -88 c207 -23
333 -61 445 -135 91 -61 238 -204 308 -301 66 -92 150 -254 157 -305 3 -21 2
-26 -3 -13 -4 11 -22 50 -41 88 -24 49 -37 65 -45 58 -13 -11 -56 12 -56 29 0
9 26 7 36 -3 22 -21 34 12 14 36 -6 7 -39 50 -74 97 -123 165 -236 263 -376
327 -97 45 -158 60 -332 82 -183 24 -164 28 -374 -77 -116 -58 -148 -80 -188
-124 -76 -85 -79 -88 -89 -88 -10 0 20 42 82 118 30 35 68 59 214 133 99 49
189 89 200 89 12 0 67 -5 122 -11z m-102 -156 c-7 -2 -21 -2 -30 0 -10 3 -4 5
12 5 17 0 24 -2 18 -5z m230 0 c-13 -2 -33 -2 -45 0 -13 2 -3 4 22 4 25 0 35
-2 23 -4z m-343 -13 c-8 -5 -22 -9 -30 -9 -10 0 -8 3 5 9 27 12 43 12 25 0z
m525 -30 c3 -6 -1 -7 -9 -4 -18 7 -21 14 -7 14 6 0 13 -4 16 -10z m402 -275
c8 -9 13 -19 9 -22 -7 -7 -36 16 -36 28 0 13 10 11 27 -6z m59 -50 c18 -14 17
-15 -15 -13 -19 2 -36 9 -39 16 -5 17 30 15 54 -3z m-1626 -19 c0 -3 -4 -8
-10 -11 -5 -3 -10 -1 -10 4 0 6 5 11 10 11 6 0 10 -2 10 -4z m1250 -58 c0 -4
15 -8 33 -8 23 0 40 -8 55 -25 26 -30 24 -30 -22 -8 l-35 16 -138 -68 c-76
-37 -145 -76 -154 -87 -10 -10 -17 -34 -17 -53 0 -42 25 -73 58 -71 20 1 26
-4 28 -24 6 -52 13 -70 27 -70 8 0 15 -7 15 -15 0 -8 -5 -15 -11 -15 -6 0 -5
-5 3 -13 32 -31 72 -48 121 -52 80 -7 198 30 181 56 -3 5 1 9 9 9 13 0 67 56
67 69 0 3 -17 15 -38 27 -25 13 -58 21 -102 22 -36 2 -78 5 -94 8 -19 4 -26 3
-22 -5 5 -7 -4 -10 -26 -7 -31 4 -33 6 -31 40 4 56 56 96 127 96 22 0 36 6 40
16 10 26 59 10 100 -32 19 -20 37 -41 41 -48 3 -8 7 -7 11 2 4 8 15 -6 30 -37
23 -46 44 -66 44 -41 0 6 -5 10 -10 10 -7 0 -8 6 -2 17 6 9 6 29 2 45 -7 21
-5 28 5 28 7 0 17 -15 20 -32 10 -45 102 -230 122 -245 9 -7 18 -32 21 -62 2
-28 8 -49 12 -46 11 7 28 -143 22 -200 -2 -28 -11 -54 -20 -61 -11 -8 -13 -20
-9 -42 4 -18 4 -39 1 -47 -9 -22 -42 -18 -49 5 -8 26 -25 26 -25 1 0 -11 -5
-23 -11 -27 -8 -4 -10 -28 -6 -70 4 -39 2 -64 -3 -64 -6 0 -10 14 -10 32 0 46
-48 137 -97 185 -48 46 -114 75 -180 78 -23 1 -54 10 -68 19 -22 15 -26 23
-21 46 16 82 -76 158 -118 98 -23 -32 -20 -55 9 -74 31 -20 33 -36 3 -25 -14
5 -27 24 -36 52 -19 56 -18 56 -41 35 -16 -15 -25 -16 -61 -6 -41 11 -42 10
-76 -26 -29 -32 -34 -45 -34 -87 0 -42 5 -54 33 -82 38 -38 37 -46 -17 -126
-20 -28 -36 -55 -36 -61 0 -5 -9 -21 -20 -36 -13 -18 -23 -51 -27 -95 -4 -47
-10 -67 -19 -67 -8 0 -14 5 -14 11 0 5 -4 8 -9 4 -5 -3 -12 3 -15 13 -3 9 -22
34 -42 54 -19 21 -33 42 -29 48 4 6 -2 21 -12 33 -11 12 -23 30 -26 40 -4 10
-17 17 -32 17 -14 0 -25 5 -25 10 0 6 7 10 16 10 24 0 12 35 -14 38 -12 2 -27
12 -32 23 -6 10 -20 19 -30 19 -25 0 -26 16 -2 25 16 6 16 7 0 16 -22 12 -23
35 -3 43 8 3 15 15 15 26 0 11 8 23 18 26 100 33 292 155 292 186 0 25 18 31
25 9 4 -13 -1 -27 -14 -40 -12 -12 -21 -18 -21 -14 0 3 -3 4 -6 1 -3 -3 6 -17
20 -31 25 -25 26 -25 36 -6 6 11 8 29 5 39 -4 12 -2 20 5 20 8 0 10 18 6 58
-9 97 -15 118 -68 216 -9 17 -17 38 -18 47 0 10 -16 31 -35 48 -39 34 -61 37
-144 21 -49 -9 -54 -8 -79 15 -21 20 -24 27 -13 34 7 5 22 6 33 3 14 -3 21 1
25 17 3 12 13 21 23 21 10 0 25 7 34 15 8 8 20 15 26 15 7 0 26 7 43 16 60 31
67 34 89 34 34 0 121 28 129 42 4 6 26 11 48 10 30 -1 43 3 48 14 5 13 22 15
99 13 52 -2 94 -6 94 -11z m450 -90 c0 -27 -16 -14 -29 24 -11 31 -11 31 9 13
11 -10 20 -27 20 -37z m-1129 -61 c-1 -12 -15 -9 -19 4 -3 6 1 10 8 8 6 -3 11
-8 11 -12z m-524 -19 c-3 -8 -6 -5 -6 6 -1 11 2 17 5 13 3 -3 4 -12 1 -19z
m-32 -17 c-3 -10 1 -24 10 -31 10 -8 15 -9 15 -1 0 6 5 11 10 11 6 0 10 -9 10
-21 0 -15 -5 -19 -17 -15 -10 3 -31 8 -47 12 -26 6 -27 8 -12 19 9 7 14 19 10
29 -4 11 -1 16 11 16 11 0 15 -6 10 -19z m70 -1 c-3 -5 -10 -10 -16 -10 -5 0
-9 5 -9 10 0 6 7 10 16 10 8 0 12 -4 9 -10z m1402 -12 c-3 -8 -6 -5 -6 6 -1
11 2 17 5 13 3 -3 4 -12 1 -19z m303 1 c0 -5 -4 -9 -10 -9 -5 0 -10 7 -10 16
0 8 5 12 10 9 6 -3 10 -10 10 -16z m-1825 -44 c73 -26 82 -31 71 -42 -9 -10
-97 15 -117 33 -8 8 -21 14 -27 14 -7 0 -12 5 -12 10 0 14 9 13 85 -15z m124
-50 c-12 -72 -19 -82 -19 -27 0 35 18 98 26 90 1 -2 -2 -30 -7 -63z m-1224
-87 c6 -4 2 -8 -7 -8 -10 0 -18 7 -18 17 0 9 3 12 8 7 4 -5 12 -12 17 -16z
m1867 -68 c17 -16 26 -30 19 -30 -6 0 -11 -6 -11 -14 0 -15 -101 -32 -121 -20
-6 3 -15 1 -19 -6 -11 -18 -50 6 -50 31 0 11 12 31 26 44 41 38 113 35 156 -5z
m1117 23 c0 -5 -4 -17 -9 -28 -8 -18 -9 -17 -9 8 -1 15 4 27 9 27 6 0 10 -3 9
-7z m-2902 -33 c14 -11 21 -20 15 -20 -12 0 -60 39 -49 40 5 0 20 -9 34 -20z
m-7 -30 c0 -5 -4 -10 -10 -10 -5 0 -10 5 -10 10 0 6 5 10 10 10 6 0 10 -4 10
-10z m1540 0 c0 -5 -4 -10 -10 -10 -5 0 -10 5 -10 10 0 6 5 10 10 10 6 0 10
-4 10 -10z m-1450 -45 c14 -16 10 -18 -14 -9 -9 3 -16 10 -16 15 0 14 16 11
30 -6z m815 5 c-3 -5 -10 -10 -16 -10 -5 0 -9 5 -9 10 0 6 7 10 16 10 8 0 12
-4 9 -10z m-790 -40 c3 -5 1 -10 -4 -10 -6 0 -11 5 -11 10 0 6 2 10 4 10 3 0
8 -4 11 -10z m1702 -22 c-3 -8 -6 -5 -6 6 -1 11 2 17 5 13 3 -3 4 -12 1 -19z
m-1337 -8 c4 -7 15 -10 24 -7 10 4 16 1 16 -9 0 -12 -7 -14 -30 -9 -18 4 -30
3 -30 -4 0 -6 7 -8 15 -5 11 5 13 2 9 -9 -3 -9 -31 -23 -62 -32 -51 -15 -59
-15 -88 -1 -25 11 -34 12 -38 3 -2 -7 -5 -4 -5 6 -1 9 -9 17 -18 17 -25 0 -76
46 -68 61 11 17 264 7 275 -11z m479 -13 c6 -8 30 -51 54 -98 46 -90 99 -169
123 -182 9 -5 23 -21 32 -36 16 -26 97 -102 195 -186 26 -22 47 -49 48 -60 0
-11 3 -14 6 -7 6 16 32 -14 33 -38 0 -8 17 -35 38 -59 l38 -44 -4 99 -3 99 35
-39 c20 -21 36 -43 36 -49 0 -6 7 -19 17 -29 9 -10 14 -21 10 -24 -9 -9 -44
28 -57 61 -11 28 -13 28 -20 10 -10 -24 -3 -80 13 -113 10 -20 17 -23 45 -18
29 4 35 2 45 -22 7 -15 18 -27 26 -27 25 0 23 -20 -5 -50 l-27 -29 29 -24 c73
-62 91 -80 127 -123 24 -30 48 -49 67 -53 34 -6 57 -49 85 -155 23 -88 19
-130 -13 -182 -27 -41 -127 -139 -144 -139 -4 0 -10 -16 -14 -35 -11 -59 -27
-63 -88 -21 -29 20 -56 36 -59 36 -4 0 -7 -13 -7 -29 0 -26 -7 -31 -76 -61
l-76 -34 -147 18 c-158 19 -184 15 -204 -24 -11 -22 -20 -25 -62 -25 -47 0
-50 2 -69 38 -21 40 -43 50 -97 45 -28 -2 -42 -15 -91 -78 -32 -41 -60 -82
-63 -91 -9 -25 -103 -67 -168 -74 -31 -4 -63 -13 -71 -21 -20 -19 -61 -34 -97
-34 -17 0 -44 -7 -61 -16 -26 -14 -34 -14 -57 -2 -15 8 -60 13 -111 14 -47 0
-117 4 -156 8 -48 6 -83 5 -104 -2 -25 -9 -40 -8 -73 4 -145 55 -191 68 -287
78 l-105 11 3 37 c2 20 -2 46 -8 58 -9 17 -6 31 15 78 14 31 32 68 40 82 39
66 49 101 56 199 4 57 11 107 16 112 4 4 26 3 48 -3 23 -6 57 -8 77 -4 53 10
91 78 89 158 0 46 3 61 20 77 11 10 20 25 19 32 -6 39 23 92 100 189 19 24 46
61 60 81 99 146 134 194 181 252 30 36 62 77 72 91 12 17 27 26 45 26 47 0 57
13 54 76 -3 72 -18 97 -103 164 -38 30 -69 59 -69 64 0 14 60 -28 118 -82 l35
-33 31 29 c17 16 42 32 56 36 14 4 49 14 79 22 30 8 61 12 69 9 8 -3 40 -1 71
5 31 5 107 19 170 30 63 11 119 24 125 30 14 14 31 13 45 -3z m211 -73 c0 -8
-4 -12 -10 -9 -5 3 -10 13 -10 21 0 8 5 12 10 9 6 -3 10 -13 10 -21z m-830
-35 c0 -14 -27 -10 -33 5 -4 10 0 12 14 9 10 -3 19 -9 19 -14z m1940 -24 c0
-8 -7 -15 -15 -15 -8 0 -15 7 -15 15 0 8 7 15 15 15 8 0 15 -7 15 -15z m-66
-161 c9 -3 15 -16 15 -28 -1 -16 -2 -17 -6 -3 -2 9 -13 17 -24 17 -11 0 -17 5
-14 10 7 12 8 12 29 4z m203 -10 c-3 -3 -12 -4 -19 -1 -8 3 -5 6 6 6 11 1 17
-2 13 -5z m-880 -96 c-3 -7 -5 -2 -5 12 0 14 2 19 5 13 2 -7 2 -19 0 -25z
m-37 -8 c0 -5 -7 -6 -17 -3 -11 4 -14 3 -9 -5 8 -14 5 -15 -19 -6 -13 5 -14 8
-3 15 18 12 48 11 48 -1z m1047 -13 c13 -10 23 -27 23 -37 0 -10 8 -20 18 -22
15 -4 18 -12 14 -37 -3 -22 0 -31 9 -32 8 0 3 -5 -11 -11 l-25 -11 37 -16 c21
-9 38 -21 38 -27 0 -15 53 -52 67 -47 10 3 10 10 2 24 -5 11 -14 17 -20 14 -5
-4 -9 1 -9 11 0 14 7 16 45 12 25 -3 45 -1 45 4 0 5 -4 6 -10 3 -5 -3 -10 -4
-10 -1 0 2 -3 13 -6 23 -5 15 -4 15 5 3 9 -12 11 -11 11 8 0 13 4 21 9 18 5
-3 12 11 16 32 l7 37 13 -39 c13 -37 14 -150 1 -163 -3 -3 -6 -1 -6 5 0 7 -9
12 -20 12 -11 0 -20 -5 -20 -11 0 -5 5 -7 10 -4 6 3 10 -5 10 -19 0 -34 -18
-42 -26 -11 -7 27 -24 34 -24 10 0 -8 -9 -15 -20 -15 -11 0 -20 -6 -20 -13 0
-16 -36 -47 -55 -47 -7 0 -17 5 -20 10 -4 6 -25 10 -48 10 -116 -3 -273 23
-229 38 6 2 12 9 12 16 0 19 60 66 83 66 16 0 19 5 13 30 -5 26 -2 32 20 40
29 11 25 24 -14 44 -29 15 -75 11 -169 -15 -29 -8 -47 -8 -55 -1 -7 5 -27 13
-45 16 -27 6 -34 3 -53 -23 -13 -16 -31 -32 -41 -34 -11 -3 -19 -14 -19 -25 0
-26 -16 -37 -24 -16 -9 23 -7 34 4 34 10 0 44 26 64 48 49 56 99 92 131 92 11
0 34 9 50 20 41 27 206 25 242 -3z m-1122 -57 c-4 -28 -9 -49 -12 -46 -3 2 -2
28 2 56 4 28 9 49 12 46 3 -2 2 -28 -2 -56z m1462 28 c-3 -8 -6 -5 -6 6 -1 11
2 17 5 13 3 -3 4 -12 1 -19z m-1367 2 c0 -5 -2 -10 -4 -10 -3 0 -8 5 -11 10
-3 6 -1 10 4 10 6 0 11 -4 11 -10z m1207 -122 c-3 -8 -6 -5 -6 6 -1 11 2 17 5
13 3 -3 4 -12 1 -19z m-441 -168 c22 0 17 -16 -17 -49 -33 -34 -45 -38 -52
-18 -7 19 -36 -24 -37 -55 0 -15 -5 -30 -12 -34 -8 -5 -9 3 -5 28 3 21 1 40
-6 47 -9 9 -8 11 6 6 12 -5 17 -2 17 9 0 22 61 78 78 71 7 -3 20 -5 28 -5z
m-2618 -190 c3 -8 0 -10 -8 -5 -10 6 -12 4 -7 -9 4 -10 3 -15 -3 -11 -6 3 -13
-1 -16 -9 -3 -9 -10 -13 -15 -10 -12 7 22 65 35 61 5 -2 12 -9 14 -17z m55
-24 c27 -21 20 -26 -13 -10 -16 9 -30 17 -30 20 0 9 26 3 43 -10z m-26 -22
c-3 -3 -12 -4 -19 -1 -8 3 -5 6 6 6 11 1 17 -2 13 -5z m73 -14 c0 -5 -4 -10
-10 -10 -5 0 -10 5 -10 10 0 6 5 10 10 10 6 0 10 -4 10 -10z m2537 -422 c-3
-8 -6 -5 -6 6 -1 11 2 17 5 13 3 -3 4 -12 1 -19z m-590 -310 c-3 -8 -6 -5 -6
6 -1 11 2 17 5 13 3 -3 4 -12 1 -19z m743 -74 c0 -11 -34 -33 -49 -34 -11 0
-10 5 4 20 17 19 45 27 45 14z m105 -44 c3 -5 -1 -10 -9 -10 -9 0 -16 5 -16
10 0 6 4 10 9 10 6 0 13 -4 16 -10z m1233 -835 c-3 -3 -9 2 -12 12 -6 14 -5
15 5 6 7 -7 10 -15 7 -18z m67 -105 c3 -5 1 -10 -4 -10 -6 0 -11 5 -11 10 0 6
2 10 4 10 3 0 8 -4 11 -10z m19 -36 c3 -8 2 -12 -4 -9 -6 3 -10 10 -10 16 0
14 7 11 14 -7z m-594 -64 c0 -5 -8 -10 -17 -10 -15 0 -16 2 -3 10 19 12 20 12
20 0z m624 -5 c3 -8 1 -15 -4 -15 -6 0 -10 7 -10 15 0 8 2 15 4 15 2 0 6 -7
10 -15z m-1720 -610 c-4 -9 0 -15 10 -15 9 0 16 5 16 10 0 23 41 -12 61 -52
50 -99 -15 -198 -130 -198 -46 0 -55 4 -90 39 -63 63 -62 141 3 206 21 21 35
25 80 25 45 0 54 -3 50 -15z m1278 -52 c35 -32 50 -71 43 -114 -9 -52 -25 -50
-18 3 4 27 3 39 -5 35 -5 -4 -8 -16 -5 -27 3 -11 0 -27 -7 -35 -10 -12 -10
-18 0 -30 7 -8 8 -15 2 -15 -19 0 -32 27 -29 61 1 19 -2 34 -8 34 -5 0 -8 -12
-7 -26 4 -29 -10 -43 -53 -54 -53 -15 -77 -14 -101 2 -15 9 -24 11 -24 4 0 -6
4 -11 9 -11 5 0 11 -9 14 -20 3 -11 20 -27 39 -35 26 -11 29 -14 11 -15 -32 0
-81 46 -94 90 -18 60 11 120 76 162 37 24 126 19 157 -9z m-65 -179 c-3 -3
-12 -4 -19 -1 -8 3 -5 6 6 6 11 1 17 -2 13 -5z m16 -38 c4 -10 1 -13 -9 -9 -7
3 -14 9 -14 14 0 14 17 10 23 -5z m-2718 -326 c3 -5 1 -10 -4 -10 -6 0 -11 5
-11 10 0 6 2 10 4 10 3 0 8 -4 11 -10z m27 -164 c8 -127 0 -382 -14 -427 l-13
-44 -3 45 c-2 24 -8 48 -14 51 -12 8 -12 323 0 391 5 26 7 60 5 75 l-5 28 20
-24 c14 -18 21 -45 24 -95z m1507 -125 c63 -59 77 -128 38 -195 -54 -96 -186
-105 -251 -19 -21 28 -32 98 -22 137 8 34 54 86 91 102 43 19 109 8 144 -25z
m1230 -88 c37 -21 61 -68 60 -115 -1 -18 -3 -25 -6 -15 -5 19 -23 23 -23 5 0
-9 -3 -9 -12 0 -7 7 -21 12 -31 12 -17 0 -18 2 -6 17 13 15 12 15 -6 6 -11 -6
-37 -13 -57 -17 -30 -5 -37 -3 -41 11 -3 10 -5 7 -3 -7 3 -45 12 -50 62 -33
50 17 59 14 49 -17 -4 -13 -18 -23 -36 -27 -16 -3 -32 -10 -35 -14 -7 -13 -24
-11 -24 2 0 6 -7 17 -15 26 -12 12 -19 13 -30 3 -11 -9 -18 -10 -28 -1 -30 24
-29 -17 1 -52 24 -28 7 -30 -20 -2 -60 60 -38 165 46 216 39 24 114 25 155 2z
m21 -150 c0 -5 -9 -19 -20 -33 l-20 -25 12 33 c11 28 28 44 28 25z m-115 -73
c3 -5 -3 -10 -14 -10 -12 0 -21 5 -21 10 0 6 6 10 14 10 8 0 18 -4 21 -10z
m-2 -37 c-7 -2 -19 -2 -25 0 -7 3 -2 5 12 5 14 0 19 -2 13 -5z m-1145 -725 c8
-10 -1 -13 -40 -13 -37 0 -52 -4 -55 -15 -3 -9 -1 -11 4 -4 4 5 25 11 46 12
29 2 43 -3 63 -23 27 -27 47 -27 24 0 -23 27 0 16 25 -12 16 -20 20 -30 12
-35 -8 -5 -6 -8 6 -8 11 0 17 -8 18 -22 4 -94 -17 -141 -80 -176 -101 -57
-226 29 -222 152 1 55 37 112 85 136 46 23 98 26 114 8z m1327 -112 c22 -9 35
-22 35 -33 0 -13 -3 -15 -8 -5 -15 23 -74 25 -108 3 -55 -34 -87 -85 -88 -141
-1 -29 -5 -48 -11 -46 -5 1 -10 26 -10 54 1 66 41 127 105 160 52 26 43 25 85
8z m20 -65 c3 -13 4 -26 0 -29 -3 -3 -5 2 -5 12 0 9 -4 15 -9 12 -5 -3 -7 -15
-4 -26 6 -23 -5 -25 -56 -10 -42 12 -55 5 -17 -9 42 -16 27 -41 -25 -41 -10 0
-19 -6 -19 -14 0 -16 -27 -29 -34 -17 -10 16 17 84 42 107 25 21 28 22 40 6
13 -16 13 -15 12 3 -3 30 -3 30 35 30 28 0 35 -4 40 -24z m-2 -67 c9 -9 -65
-74 -84 -74 -9 0 -22 7 -30 16 -11 13 -9 14 12 9 19 -5 31 1 54 25 29 31 37
35 48 24z m-123 -72 c0 -13 -12 -22 -22 -16 -10 6 -1 24 13 24 5 0 9 -4 9 -8z
m45 -42 c3 -5 -1 -10 -10 -10 -9 0 -13 5 -10 10 3 6 8 10 10 10 2 0 7 -4 10
-10z m-82 -21 l22 -21 -22 11 c-12 6 -25 16 -28 21 -11 17 5 11 28 -11z
m-1178 -779 c3 -6 -4 -9 -17 -8 -13 1 -34 -2 -48 -6 -24 -7 -24 -6 -6 8 22 18
62 21 71 6z m-112 -42 c-37 -40 -56 -101 -44 -143 25 -91 90 -143 162 -128 17
3 29 1 29 -5 0 -16 -57 -20 -96 -6 -94 32 -138 134 -99 228 17 41 45 76 59 76
5 0 0 -10 -11 -22z m187 10 c0 -4 -9 -8 -20 -8 -11 0 -20 4 -20 8 0 4 9 8 20
8 11 0 20 -4 20 -8z m50 -59 c0 -12 -59 4 -64 18 -3 8 -1 11 4 8 6 -3 10 -1
10 5 0 11 49 -19 50 -31z m1200 18 c-49 -16 -73 -36 -99 -77 -14 -23 -21 -29
-21 -17 0 45 75 107 130 106 21 0 19 -2 -10 -12z m-1280 -15 c0 -14 -11 -21
-26 -15 -8 3 -11 9 -8 14 7 11 34 12 34 1z m1407 -15 c4 -6 -4 -7 -22 -3 -26
7 -27 6 -15 -9 12 -14 12 -18 -1 -26 -19 -12 -82 -12 -74 1 3 6 17 10 31 10
13 0 24 5 24 11 0 8 -16 10 -50 5 -59 -8 -70 10 -12 19 20 4 41 8 46 9 18 4
66 -7 73 -17z m-1563 -12 c-4 -8 -1 -21 5 -29 9 -11 7 -15 -8 -19 -16 -4 -19
0 -16 22 2 14 4 29 4 34 1 4 5 7 11 7 5 0 7 -7 4 -15z m56 -2 c0 -5 -5 -15
-10 -23 -8 -12 -10 -11 -10 8 0 12 5 22 10 22 6 0 10 -3 10 -7z m200 -29 c0
-25 -25 -94 -34 -94 -3 0 -1 12 4 26 6 14 10 43 10 65 0 24 4 38 10 34 6 -3
10 -17 10 -31z m-155 2 c0 -13 -2 -27 -5 -30 -5 -4 -6 43 -1 52 4 8 7 -1 6
-22z m1480 14 c3 -5 1 -10 -4 -10 -6 0 -11 5 -11 10 0 6 2 10 4 10 3 0 8 -4
11 -10z m-197 -25 c-6 -14 -15 -25 -20 -25 -11 0 -10 7 4 30 18 29 30 25 16
-5z m-64 -92 c-1 -13 2 -23 7 -23 5 0 9 -9 9 -20 0 -24 54 -80 77 -80 9 0 13
-3 10 -6 -11 -12 -66 17 -84 45 -27 40 -41 87 -35 118 4 24 6 25 12 8 4 -11 6
-30 4 -42z m106 47 c0 -5 -4 -10 -9 -10 -6 0 -13 5 -16 10 -3 6 1 10 9 10 9 0
16 -4 16 -10z m85 -26 c-21 -21 -38 -18 -23 5 6 10 17 17 25 14 10 -4 10 -8
-2 -19z m-1362 -11 c-7 -2 -19 -2 -25 0 -7 3 -2 5 12 5 14 0 19 -2 13 -5z
m-113 -13 c0 -5 -4 -10 -10 -10 -5 0 -10 5 -10 10 0 6 5 10 10 10 6 0 10 -4
10 -10z m172 -22 c-7 -7 -12 -8 -12 -2 0 14 12 26 19 19 2 -3 -1 -11 -7 -17z
m1253 2 c-18 -20 -23 -19 -55 9 -3 2 7 1 23 -3 16 -4 27 -2 27 4 0 5 5 10 12
10 6 0 3 -9 -7 -20z m-1285 6 c0 -3 -4 -8 -10 -11 -5 -3 -10 -1 -10 4 0 6 5
11 10 11 6 0 10 -2 10 -4z m1230 -20 c0 -2 -9 -6 -20 -9 -11 -3 -20 -1 -20 4
0 5 9 9 20 9 11 0 20 -2 20 -4z m510 -61 c0 -2 -13 4 -30 13 -16 9 -30 21 -30
25 0 5 14 -1 30 -13 17 -12 30 -23 30 -25z m-94 -25 c24 -17 44 -35 44 -40 0
-14 -1 -14 -60 30 -62 47 -50 54 16 10z m151 -14 c27 -24 27 -25 5 -19 -13 3
-26 12 -29 19 -3 8 -9 11 -14 8 -5 -3 -9 0 -9 5 0 18 17 13 47 -13z m-45 -63
c22 -16 48 -32 57 -38 15 -10 137 -98 156 -114 6 -4 24 -16 40 -27 17 -10 37
-24 45 -31 55 -43 152 -113 157 -113 5 0 83 -59 93 -70 3 -4 31 -26 63 -49 31
-24 57 -45 57 -47 0 -9 -19 -3 -32 9 -7 7 -60 48 -118 91 -58 43 -106 82 -108
87 -2 5 -8 9 -13 9 -8 0 -87 52 -194 128 -22 15 -65 46 -95 67 -30 21 -57 41
-60 44 -3 3 -24 19 -48 35 -41 28 -60 46 -47 46 3 0 24 -12 47 -27z m143 -1
l45 -28 -37 -1 c-26 0 -32 2 -19 6 18 7 16 9 -12 22 -18 8 -32 17 -32 21 0 12
7 10 55 -20z m75 -57 c20 -24 6 -28 -15 -5 -10 11 -13 20 -8 20 6 0 16 -7 23
-15z m-21 -31 c2 -2 -2 -4 -10 -4 -8 0 -25 10 -39 21 l-25 20 35 -17 c19 -9
37 -18 39 -20z m119 -33 c29 -21 64 -51 80 -66 23 -24 24 -26 5 -16 -13 6 -23
15 -23 19 0 5 -29 28 -65 51 -36 24 -65 45 -65 47 0 11 22 0 68 -35z m161
-115 c10 -12 8 -13 -8 -9 -12 3 -21 9 -21 14 0 14 16 11 29 -5z m61 -51 c16
-19 1 -19 -24 0 -16 12 -17 15 -4 15 8 0 21 -7 28 -15z m65 -55 c12 -19 -12
-10 -31 11 -19 22 -19 22 3 10 12 -6 25 -16 28 -21z m40 -38 c-3 -3 -11 0 -18
7 -9 10 -8 11 6 5 10 -3 15 -9 12 -12z m125 -116 c0 -5 -11 1 -25 14 -14 13
-25 28 -25 33 0 12 50 -35 50 -47z m-66 -21 c11 -8 16 -18 12 -22 -3 -4 -16 3
-28 15 -25 25 -13 29 16 7z m111 -15 c22 -23 25 -30 12 -30 -9 0 -17 5 -17 12
0 6 -7 20 -17 30 -27 30 -9 20 22 -12z m50 -50 c3 -5 1 -10 -4 -10 -6 0 -11 5
-11 10 0 6 2 10 4 10 3 0 8 -4 11 -10z m20 -30 c3 -5 1 -10 -4 -10 -6 0 -11 5
-11 10 0 6 2 10 4 10 3 0 8 -4 11 -10z"/>
<path d="M4420 9229 c0 -11 -5 -29 -11 -41 -15 -28 -7 -31 35 -12 42 21 44 29
14 55 -30 24 -38 24 -38 -2z"/>
<path d="M5395 8177 c15 -23 63 -52 72 -44 5 6 -68 67 -80 67 -4 0 -1 -11 8
-23z"/>
<path d="M4632 7475 c-11 -12 -10 -15 3 -15 8 0 15 7 15 15 0 18 -2 18 -18 0z"/>
<path d="M3408 7753 c7 -3 16 -2 19 1 4 3 -2 6 -13 5 -11 0 -14 -3 -6 -6z"/>
<path d="M4601 6998 c1 -37 2 -39 9 -18 12 36 12 60 0 60 -5 0 -10 -19 -9 -42z"/>
<path d="M4554 7014 c3 -8 6 -18 6 -20 0 -2 5 -4 10 -4 16 0 11 27 -6 34 -12
5 -15 2 -10 -10z"/>
<path d="M5280 7290 c0 -6 7 -10 15 -10 8 0 15 2 15 4 0 2 -7 6 -15 10 -8 3
-15 1 -15 -4z"/>
<path d="M5190 4250 c0 -5 5 -10 11 -10 5 0 7 5 4 10 -3 6 -8 10 -11 10 -2 0
-4 -4 -4 -10z"/>
<path d="M5084 4201 c3 -4 31 -9 61 -10 31 -1 54 2 51 7 -3 5 -30 9 -61 10
-31 1 -54 -2 -51 -7z"/>
<path d="M5026 4177 c-11 -24 10 -72 46 -102 67 -57 173 -15 185 73 5 39 -6
57 -22 32 -3 -5 -12 -7 -19 -4 -8 3 -17 -3 -21 -15 -6 -21 -38 -36 -54 -27
-14 9 -41 -4 -41 -20 0 -38 -58 7 -62 49 -3 25 -6 28 -12 14z m190 -63 c-8
-30 -44 -46 -69 -30 -13 8 -20 8 -26 -3 -5 -8 -14 -10 -22 -6 -20 13 20 24 66
18 31 -3 37 -2 25 6 -13 10 -13 13 3 22 9 5 18 20 18 32 1 18 2 19 6 4 3 -10
2 -30 -1 -43z"/>
<path d="M5050 4168 c0 -24 36 -39 65 -26 33 15 32 28 -4 28 -16 0 -36 3 -45
6 -10 4 -16 1 -16 -8z"/>
<path d="M6365 4180 c-7 -12 2 -12 30 0 19 8 19 9 -2 9 -12 1 -25 -3 -28 -9z"/>
<path d="M6340 4125 c-7 -8 -23 -15 -37 -15 -17 0 -24 -5 -21 -17 5 -29 26
-25 65 11 26 24 33 36 22 36 -9 0 -22 -7 -29 -15z"/>
<path d="M5020 3340 c-8 -5 -12 -12 -9 -15 4 -3 12 1 19 10 14 17 11 19 -10 5z"/>
<path d="M5080 3326 c0 -8 63 -36 81 -36 10 0 21 -5 25 -11 4 -8 9 -7 15 2 15
25 10 29 -35 29 -25 0 -48 5 -51 10 -6 10 -35 14 -35 6z"/>
<path d="M5033 3284 c0 -17 8 -26 30 -34 23 -7 28 -13 20 -21 -7 -7 -19 -9
-27 -6 -9 4 -19 5 -22 4 -4 -1 -11 9 -16 22 -4 13 -11 21 -14 18 -12 -11 30
-80 60 -98 62 -38 153 -15 175 45 19 50 22 66 12 66 -6 0 -11 -6 -11 -14 0 -9
-7 -12 -20 -9 -12 3 -29 -2 -40 -12 -19 -17 -21 -17 -39 -1 -10 9 -25 16 -32
14 -8 -2 -13 2 -12 8 1 6 -13 17 -31 25 -33 15 -33 15 -33 -7z m54 -101 c-3
-3 -11 -2 -17 2 -9 6 -9 10 1 16 14 8 27 -7 16 -18z m58 17 c-3 -5 1 -10 9
-10 9 0 16 -5 16 -11 0 -14 -52 -7 -57 8 -2 6 4 13 14 16 10 3 19 5 21 6 2 0
0 -3 -3 -9z m42 4 c-3 -3 -12 -4 -19 -1 -8 3 -5 6 6 6 11 1 17 -2 13 -5z"/>
<path d="M5235 3300 c3 -5 8 -10 11 -10 2 0 4 5 4 10 0 6 -5 10 -11 10 -5 0
-7 -4 -4 -10z"/>
<path d="M6251 3239 c-7 -12 -10 -23 -8 -26 3 -3 11 5 17 17 15 28 8 35 -9 9z"/>
<path d="M6232 3180 c0 -14 2 -19 5 -12 2 6 2 18 0 25 -3 6 -5 1 -5 -13z"/>
<path d="M6270 3180 c0 -13 11 -13 30 0 12 8 11 10 -7 10 -13 0 -23 -4 -23
-10z"/>
<path d="M5066 2274 c-5 -14 -4 -15 9 -4 17 14 19 20 6 20 -5 0 -12 -7 -15
-16z"/>
<path d="M5200 2261 c0 -6 5 -13 10 -16 6 -3 10 1 10 9 0 9 -4 16 -10 16 -5 0
-10 -4 -10 -9z"/>
<path d="M5237 2228 c-10 -5 -30 -7 -44 -3 -17 4 -29 1 -37 -11 -11 -14 -18
-15 -49 -5 -20 7 -42 9 -48 5 -6 -3 -16 0 -21 7 -6 9 -8 -8 -5 -51 3 -35 10
-66 16 -68 6 -2 11 -9 11 -15 1 -26 54 -51 106 -52 42 0 57 5 79 25 45 42 72
133 43 143 -27 9 -49 -5 -42 -27 6 -21 6 -21 -9 -1 -14 18 -13 21 6 37 24 21
20 31 -6 16z m-156 -43 c-1 -15 -24 -12 -29 3 -3 9 2 13 12 10 10 -1 17 -7 17
-13z m129 -6 c0 -5 -14 -15 -31 -21 -23 -8 -27 -13 -17 -19 9 -6 3 -9 -17 -9
-20 0 -26 3 -17 9 10 6 9 10 -7 14 -35 9 -23 26 22 30 23 2 48 4 55 5 6 1 12
-3 12 -9z m30 -79 c0 -5 -7 -7 -15 -4 -8 4 -15 8 -15 10 0 2 7 4 15 4 8 0 15
-4 15 -10z m-116 -8 c2 -4 -4 -9 -15 -9 -10 -1 -19 2 -19 8 0 11 27 12 34 1z
m106 -22 c0 -5 -6 -10 -14 -10 -8 0 -18 5 -21 10 -3 6 3 10 14 10 12 0 21 -4
21 -10z m-67 -7 c-7 -2 -21 -2 -30 0 -10 3 -4 5 12 5 17 0 24 -2 18 -5z"/>
<path d="M6500 2130 c0 -5 5 -10 11 -10 5 0 7 5 4 10 -3 6 -8 10 -11 10 -2 0
-4 -4 -4 -10z"/>
<path d="M6445 2080 c-3 -5 -1 -10 4 -10 6 0 11 5 11 10 0 6 -2 10 -4 10 -3 0
-8 -4 -11 -10z"/>
<path d="M3203 8615 c0 -22 2 -30 4 -17 2 12 2 30 0 40 -3 9 -5 -1 -4 -23z"/>
<path d="M3365 8524 c-11 -14 -26 -40 -33 -57 -13 -31 -13 -32 5 -12 22 25 56
85 51 90 -2 2 -13 -7 -23 -21z"/>
<path d="M3186 8522 c-3 -6 -1 -14 5 -17 15 -10 25 3 12 16 -7 7 -13 7 -17 1z"/>
<path d="M3552 8464 c-14 -16 -45 -84 -38 -84 2 0 18 23 35 50 29 48 31 66 3
34z"/>
<path d="M2745 8040 c-3 -5 -1 -10 4 -10 6 0 11 5 11 10 0 6 -2 10 -4 10 -3 0
-8 -4 -11 -10z"/>
<path d="M2801 8006 c-9 -11 -6 -12 14 -8 14 2 22 8 19 13 -8 13 -20 11 -33
-5z"/>
<path d="M5825 7823 c-13 -21 -8 -63 7 -63 11 0 47 -40 48 -53 0 -4 12 -26 27
-48 35 -53 46 -39 41 49 -3 64 -7 74 -36 101 -36 35 -72 40 -87 14z"/>
<path d="M5860 7600 c0 -49 1 -50 29 -50 28 0 29 2 21 29 -11 40 -29 71 -40
71 -6 0 -10 -22 -10 -50z"/>
<path d="M5951 7534 c0 -11 3 -14 6 -6 3 7 2 16 -1 19 -3 4 -6 -2 -5 -13z"/>
<path d="M5995 6500 c-5 -8 10 -63 26 -92 7 -14 2 -25 -22 -48 -18 -16 -38
-30 -45 -30 -7 0 -19 -8 -26 -17 -7 -10 -39 -35 -71 -56 -33 -21 -56 -41 -53
-44 3 -3 23 6 43 21 21 14 68 47 106 72 37 25 67 49 67 54 0 6 6 10 13 10 41
0 74 84 43 109 -20 17 -75 31 -81 21z"/>
<path d="M5755 6190 c-3 -5 1 -10 9 -10 9 0 16 5 16 10 0 6 -4 10 -9 10 -6 0
-13 -4 -16 -10z"/>
<path d="M5705 6148 c-11 -11 -29 -24 -40 -28 -14 -6 -15 -9 -5 -9 9 -1 31 12
50 29 19 16 31 29 25 29 -5 0 -19 -9 -30 -21z"/>
<path d="M5575 6058 c-22 -12 -35 -23 -28 -25 7 -3 29 7 50 21 45 31 33 33
-22 4z"/>
<path d="M5470 6030 c-13 -8 -12 -10 3 -10 9 0 17 5 17 10 0 12 -1 12 -20 0z"/>
</g>
</svg>
